<svg xmlns="http://www.w3.org/2000/svg" width="20.03" height="20.031" xmlns:v="https://vecta.io/nano"><path d="M2.15 4.287C1.281 4.289.497 3.768.163 2.966S.011 1.24.625.625s1.537-.799 2.34-.467S4.29 1.273 4.29 2.142c0 1.183-.957 2.142-2.14 2.145zm0 7.869c-.868.002-1.653-.519-1.987-1.32S.011 9.11.624 8.495s1.536-.8 2.339-.469S4.29 9.141 4.29 10.009c.001 1.183-.957 2.144-2.14 2.147zm0 7.868c-.869.002-1.653-.519-1.987-1.321s-.152-1.726.461-2.341 1.537-.8 2.339-.468 1.326 1.115 1.326 1.983c.001 1.183-.957 2.143-2.14 2.146zm7.86-15.737c-1.185-.002-2.144-.964-2.142-2.149s.963-2.144 2.148-2.143 2.145.962 2.144 2.147c.001.57-.226 1.117-.629 1.519s-.951.628-1.521.626zm0 7.869c-1.185-.002-2.143-.964-2.142-2.148s.962-2.144 2.147-2.144 2.145.96 2.145 2.145c.001.57-.226 1.117-.629 1.52s-.951.628-1.521.627zm0 7.868c-1.185-.002-2.143-.964-2.142-2.149s.963-2.144 2.147-2.143 2.145.961 2.145 2.146c.001.57-.226 1.117-.629 1.52s-.951.628-1.521.626zm7.87-15.737c-1.185-.002-2.144-.964-2.142-2.149s.963-2.144 2.148-2.143 2.145.962 2.144 2.147c.001.57-.226 1.117-.629 1.519s-.951.628-1.521.626zm0 7.869c-1.185-.002-2.143-.964-2.142-2.148s.962-2.144 2.147-2.144 2.145.96 2.145 2.145c.001.57-.226 1.117-.629 1.52s-.951.628-1.521.627zm0 7.868c-1.185-.002-2.143-.964-2.142-2.149s.963-2.144 2.147-2.143 2.145.961 2.145 2.146c.001.57-.226 1.117-.629 1.52s-.951.628-1.521.626z" fill="#fff" fill-rule="evenodd"/></svg>